HIERARCHY
ROOT Hips
{
	OFFSET 0.000000 0.000000 0.000000
	CHANNELS 6 Xposition Yposition Zposition Zrotation Yrotation Xrotation 
	JOINT LowerBack
	{
		OFFSET 0.000000 0.000000 0.000000
		CHANNELS 3 Zrotation Yrotation Xrotation
		JOINT Spine
		{
			OFFSET 0.028270 2.035590 -0.193380
			CHANNELS 3 Zrotation Yrotation Xrotation
			JOINT Spine1
			{
				OFFSET 0.056720 2.048850 -0.042750
				CHANNELS 3 Zrotation Yrotation Xrotation
				JOINT Neck
				{
					OFFSET 0.000000 0.000000 0.000000
					CHANNELS 3 Zrotation Yrotation Xrotation
					JOINT Neck1
					{
						OFFSET -0.054170 1.746240 0.172020
						CHANNELS 3 Zrotation Yrotation Xrotation
						JOINT Head
						{
							OFFSET 0.104070 1.761360 -0.123970
							CHANNELS 3 Zrotation Yrotation Xrotation
							End Site
							{
								OFFSET 0.000000 0.000000 0.000000
							}
						}
					}
				}
				JOINT LeftShoulder
				{
					OFFSET 0.000000 0.000000 0.000000
					CHANNELS 3 Zrotation Yrotation Xrotation
					JOINT LeftArm
					{
						OFFSET 3.362410 1.200890 -0.311210
						CHANNELS 3 Zrotation Yrotation Xrotation
						JOINT LeftForeArm
						{
							OFFSET 4.983000 -0.000000 -0.000000
							CHANNELS 3 Zrotation Yrotation Xrotation
							JOINT LeftHand
							{
								OFFSET 3.483560 -0.000000 -0.000000
								CHANNELS 3 Zrotation Yrotation Xrotation
								JOINT LeftFingerBase
								{
									OFFSET 0.000000 0.000000 0.000000
									CHANNELS 3 Zrotation Yrotation Xrotation
									JOINT LeftHandIndex1
									{
										OFFSET 0.715260 -0.000000 -0.000000
										CHANNELS 3 Zrotation Yrotation Xrotation
										End Site
										{
											OFFSET 0.000000 0.000000 0.000000
										}
									}
								}
								JOINT LThumb
								{
									OFFSET 0.000000 0.000000 0.000000
									CHANNELS 3 Zrotation Yrotation Xrotation
									End Site
									{
										OFFSET 0.000000 0.000000 0.000000
									}
								}
							}
						}
					}
				}
				JOINT RightShoulder
				{
					OFFSET 0.000000 0.000000 0.000000
					CHANNELS 3 Zrotation Yrotation Xrotation
					JOINT RightArm
					{
						OFFSET -3.136600 1.374050 -0.404650
						CHANNELS 3 Zrotation Yrotation Xrotation
						JOINT RightForeArm
						{
							OFFSET -5.241900 -0.000000 -0.000000
							CHANNELS 3 Zrotation Yrotation Xrotation
							JOINT RightHand
							{
								OFFSET -3.444170 -0.000000 -0.000000
								CHANNELS 3 Zrotation Yrotation Xrotation
								JOINT RightFingerBase
								{
									OFFSET 0.000000 0.000000 0.000000
									CHANNELS 3 Zrotation Yrotation Xrotation
									JOINT RightHandIndex1
									{
										OFFSET -0.622530 -0.000000 -0.000000
										CHANNELS 3 Zrotation Yrotation Xrotation
										End Site
										{
											OFFSET 0.000000 0.000000 0.000000
										}
									}
								}
								JOINT RThumb
								{
									OFFSET 0.000000 0.000000 0.000000
									CHANNELS 3 Zrotation Yrotation Xrotation
									End Site
									{
										OFFSET 0.000000 0.000000 0.000000
									}
								}
							}
						}
					}
				}
			}
		}
	}
}
}
MOTION
Frames: 15
Frame Time: 0.008333
2.361248 17.415163 -0.584508 28.779968 -85.346311 -7.583364 -0.079134 0.614201 5.365928 -1.210172 0.701953 -1.555329 -7.303403 0.656529 1.501318 8.935451 7.062541 7.320165 -5.173169 -0.441294 3.405779 0.000000 0.000000 0.000000 -7.492436 -1.965943 1.253420 -59.202696 -12.994585 17.690915 -3.350435 -32.033531 0.000375 1.866409 0.010335 0.000297 -0.107396 0.036737 -0.000000 0.000000 0.000000 0.000000 0.000000 0.000000 0.000000 20.342147 3.716355 -1.205837 67.760690 18.647260 1.796270 3.085069 21.230879 0.007419 2.256792 7.392274 0.144742 0.037284 -0.054832 0.000000 0.000000 0.000000 0.000000 0.000000 0.000000 0.000000 
2.244081 17.405232 -0.596396 29.691811 -85.581885 -8.549072 -0.170046 0.699378 5.307962 -1.238291 0.787764 -1.574686 -7.327164 0.741897 1.485376 8.747304 7.113999 7.283944 -5.194336 -0.442438 3.393879 0.000000 0.000000 0.000000 -7.606325 -1.753067 1.258441 -59.086052 -12.952813 17.583127 -3.350831 -32.148892 0.000473 1.911346 -0.039297 -0.000503 -0.107459 0.035807 -0.000000 0.000000 0.000000 0.000000 0.000000 0.000000 0.000000 20.255750 3.872125 -1.219913 67.884516 18.902687 2.237164 3.063823 21.668125 0.007464 2.239030 7.492484 0.145648 0.036330 -0.057725 0.000000 0.000000 0.000000 0.000000 0.000000 0.000000 0.000000 
2.126481 17.393939 -0.606638 30.615752 -85.833675 -9.535783 -0.244716 0.781086 5.257157 -1.262856 0.869815 -1.591544 -7.350565 0.823646 1.472975 8.553843 7.157436 7.240466 -5.215127 -0.443484 3.380002 0.000000 0.000000 0.000000 -7.728318 -1.524129 1.263212 -58.978661 -12.924432 17.482168 -3.352494 -32.244156 0.000557 1.944403 -0.076912 -0.001201 -0.107503 0.034892 -0.000000 0.000000 0.000000 0.000000 0.000000 0.000000 0.000000 20.161748 4.019242 -1.235126 68.012881 19.186724 2.699286 3.044667 22.074813 0.007512 2.222885 7.583486 0.146452 0.035495 -0.060523 0.000000 0.000000 0.000000 0.000000 0.000000 0.000000 0.000000 
2.008308 17.381177 -0.615277 31.546515 -86.102742 -10.533990 -0.302703 0.860138 5.205613 -1.283520 0.948620 -1.609338 -7.372225 0.901989 1.457411 8.356915 7.208674 7.198436 -5.233371 -0.444429 3.366855 0.000000 0.000000 0.000000 -7.850339 -1.301670 1.268389 -58.889284 -12.873308 17.364653 -3.354026 -32.328720 0.000624 1.964097 -0.102148 -0.001701 -0.107408 0.033958 -0.000000 0.000000 0.000000 0.000000 0.000000 0.000000 0.000000 20.051462 4.175204 -1.250019 68.152544 19.469206 3.148374 3.027476 22.461882 0.007560 2.218264 7.662356 0.147757 0.034682 -0.063256 0.000000 0.000000 0.000000 0.000000 0.000000 0.000000 0.000000 
1.889379 17.366929 -0.622392 32.489919 -86.390758 -11.549838 -0.344272 0.936736 5.157910 -1.300421 1.024544 -1.626114 -7.392631 0.977449 1.442179 8.157374 7.258028 7.152424 -5.249742 -0.445258 3.352834 0.000000 0.000000 0.000000 -7.972112 -1.073202 1.273133 -58.817741 -12.818282 17.240540 -3.356106 -32.395316 0.000670 1.971365 -0.113572 -0.001902 -0.107241 0.033035 -0.000000 0.000000 0.000000 0.000000 0.000000 0.000000 0.000000 19.929458 4.330365 -1.265250 68.302632 19.762819 3.600147 3.012348 22.825645 0.007610 2.221805 7.727229 0.149361 0.033932 -0.065884 0.000000 0.000000 0.000000 0.000000 0.000000 0.000000 0.000000 
1.769975 17.351217 -0.628021 33.441411 -86.699118 -12.583528 -0.368584 1.011288 5.116395 -1.313239 1.098041 -1.642185 -7.411435 1.050390 1.424156 7.956816 7.314484 7.105823 -5.262992 -0.445938 3.338952 0.000000 0.000000 0.000000 -8.090690 -0.843710 1.278263 -58.765814 -12.752277 17.106191 -3.358487 -32.445536 0.000699 1.968010 -0.113273 -0.001804 -0.106995 0.032133 -0.000000 0.000000 0.000000 0.000000 0.000000 0.000000 0.000000 19.791494 4.495298 -1.280440 68.465769 20.052216 4.032351 2.998948 23.176587 0.007660 2.240325 7.774497 0.151665 0.033160 -0.068415 0.000000 0.000000 0.000000 0.000000 0.000000 0.000000 0.000000 
1.649786 17.334099 -0.632265 34.413420 -87.029324 -13.642460 -0.376332 1.084317 5.080540 -1.322471 1.169625 -1.656034 -7.429933 1.121544 1.409384 7.755802 7.353978 7.049557 -5.275889 -0.446541 3.322620 0.000000 0.000000 0.000000 -8.206007 -0.604206 1.281503 -58.730741 -12.689738 16.970298 -3.361099 -32.477436 0.000709 1.956804 -0.102364 -0.001607 -0.106700 0.031242 -0.000000 0.000000 0.000000 0.000000 0.000000 0.000000 0.000000 19.650990 4.643572 -1.295789 68.636055 20.368761 4.497716 2.987739 23.498300 0.007717 2.258490 7.810600 0.153668 0.032531 -0.070813 0.000000 0.000000 0.000000 0.000000 0.000000 0.000000 0.000000 
1.529131 17.315624 -0.635232 35.419693 -87.380777 -14.747127 -0.367730 1.156109 5.054742 -1.327934 1.239738 -1.668447 -7.447617 1.191147 1.391521 7.557387 7.397243 6.992062 -5.286317 -0.447022 3.306234 0.000000 0.000000 0.000000 -8.316213 -0.367031 1.285219 -58.711694 -12.616771 16.828408 -3.363606 -32.494838 0.000708 1.940270 -0.085334 -0.001311 -0.106336 0.030371 -0.000000 0.000000 0.000000 0.000000 0.000000 0.000000 0.000000 19.501254 4.797854 -1.310489 68.815802 20.681133 4.951488 2.977658 23.812007 0.007771 2.288324 7.829606 0.156173 0.031870 -0.073108 0.000000 0.000000 0.000000 0.000000 0.000000 0.000000 0.000000 
1.407723 17.295875 -0.636986 36.493090 -87.752723 -15.925397 -0.343220 1.226407 5.036311 -1.329861 1.308035 -1.679817 -7.465155 1.258862 1.371313 7.363315 7.442493 6.933040 -5.294998 -0.447414 3.289716 0.000000 0.000000 0.000000 -8.422321 -0.132069 1.289345 -58.704324 -12.532743 16.684558 -3.365848 -32.500125 0.000700 1.921091 -0.065601 -0.000915 -0.105914 0.029504 -0.000000 0.000000 0.000000 0.000000 0.000000 0.000000 0.000000 19.347273 4.955051 -1.324722 69.003023 20.990424 5.401052 2.968478 24.116592 0.007824 2.326338 7.836208 0.159075 0.031189 -0.075306 0.000000 0.000000 0.000000 0.000000 0.000000 0.000000 0.000000 
1.285589 17.274923 -0.637603 37.701522 -88.142151 -17.245833 -0.304656 1.294900 5.026441 -1.328752 1.374310 -1.689937 -7.483229 1.324491 1.348778 7.175899 7.487874 6.872794 -5.302723 -0.447749 3.273109 0.000000 0.000000 0.000000 -8.525100 0.097308 1.294201 -58.703825 -12.437629 16.542796 -3.367708 -32.495555 0.000695 1.901367 -0.046673 -0.000520 -0.105438 0.028630 -0.000000 0.000000 0.000000 0.000000 0.000000 0.000000 0.000000 19.194820 5.111921 -1.338246 69.193446 21.297206 5.852396 2.959726 24.414364 0.007874 2.369526 7.833603 0.162077 0.030480 -0.077413 0.000000 0.000000 0.000000 0.000000 0.000000 0.000000 0.000000 
1.162646 17.252886 -0.637201 39.173123 -88.543906 -18.836112 -0.253638 1.360497 5.025091 -1.325002 1.437524 -1.698915 -7.502342 1.386992 1.323658 6.997671 7.534121 6.812804 -5.310050 -0.448058 3.256786 0.000000 0.000000 0.000000 -8.625593 0.317308 1.300369 -58.704983 -12.329521 16.406437 -3.369174 -32.483394 0.000693 1.882791 -0.030970 -0.000225 -0.104914 0.027733 -0.000000 0.000000 0.000000 0.000000 0.000000 0.000000 0.000000 19.048745 5.267391 -1.351149 69.384752 21.598845 6.307676 2.950848 24.707702 0.007918 2.415770 7.825180 0.165181 0.029727 -0.079435 0.000000 0.000000 0.000000 0.000000 0.000000 0.000000 0.000000 
1.038781 17.229782 -0.635819 41.144119 -88.952614 -20.929787 -0.190615 1.421662 5.029066 -1.318477 1.496074 -1.708153 -7.522083 1.444652 1.293327 6.831131 7.604047 6.759686 -5.314618 -0.448251 3.242604 0.000000 0.000000 0.000000 -8.725464 0.535276 1.309789 -58.706412 -12.218033 16.287132 -3.371659 -32.451726 0.000707 1.866868 -0.024746 -0.000131 -0.104437 0.026857 -0.000000 0.000000 0.000000 0.000000 0.000000 0.000000 0.000000 18.900784 5.445293 -1.365394 69.581060 21.863274 6.719921 2.940787 25.013778 0.007951 2.475097 7.815979 0.169181 0.028756 -0.081437 0.000000 0.000000 0.000000 0.000000 0.000000 0.000000 0.000000 
0.914109 17.205836 -0.633600 44.072248 -89.350042 -23.990382 -0.119307 1.475242 5.046080 -1.310588 1.547232 -1.713633 -7.545069 1.495113 1.266174 6.678136 7.626357 6.698674 -5.325765 -0.448702 3.226212 0.000000 0.000000 0.000000 -8.822367 0.712380 1.318792 -58.696468 -12.070145 16.161458 -3.371406 -32.440226 0.000720 1.851762 -0.016365 0.000063 -0.103744 0.025839 -0.000000 0.000000 0.000000 0.000000 0.000000 0.000000 0.000000 18.793958 5.561664 -1.376011 69.758552 22.180176 7.235942 2.930895 25.290344 0.007980 2.510465 7.807863 0.171583 0.028026 -0.083254 0.000000 0.000000 0.000000 0.000000 0.000000 0.000000 0.000000 
0.788244 17.180922 -0.630540 48.999062 -89.722556 -29.050399 -0.033842 1.515554 5.066303 -1.298799 1.584960 -1.719292 -7.568250 1.532025 1.234465 6.541311 7.673043 6.648336 -5.334399 -0.449052 3.212914 0.000000 0.000000 0.000000 -8.919182 0.878415 1.332999 -58.682049 -11.919752 16.057886 -3.373015 -32.406783 0.000746 1.839563 -0.017634 0.000057 -0.103142 0.024869 -0.000000 0.000000 0.000000 0.000000 0.000000 0.000000 0.000000 18.689982 5.693862 -1.389573 69.938833 22.451849 7.702333 2.918855 25.585443 0.007993 2.558456 7.805186 0.174884 0.027019 -0.085032 0.000000 0.000000 0.000000 0.000000 0.000000 0.000000 0.000000 
0.661169 17.155041 -0.626668 -121.276398 -89.973643 141.092135 0.066594 1.527695 5.088714 -1.281037 1.594932 -1.723715 -7.590026 1.541330 1.201810 6.422900 7.735071 6.607438 -5.340775 -0.449296 3.202286 0.000000 0.000000 0.000000 -9.016435 1.031122 1.354337 -58.663219 -11.779341 15.981889 -3.378157 -32.343362 0.000782 1.829066 -0.026274 -0.000049 -0.102739 0.024030 -0.000000 0.000000 0.000000 0.000000 0.000000 0.000000 0.000000 18.591530 5.823225 -1.408775 70.120992 22.685827 8.133369 2.903988 25.895312 0.007979 2.613878 7.811537 0.178985 0.025739 -0.086684 0.000000 0.000000 0.000000 0.000000 0.000000 0.000000 0.000000 
